G04*
G04 #@! TF.GenerationSoftware,Altium Limited,Altium Designer,19.1.5 (86)*
G04*
G04 Layer_Physical_Order=1*
G04 Layer_Color=255*
%FSLAX44Y44*%
%MOMM*%
G71*
G01*
G75*
%ADD21R,3.5500X0.8500*%
%ADD22R,2.6500X0.8500*%
%ADD23R,2.4000X2.4000*%
%ADD24C,2.4000*%
%ADD25C,1.9500*%
%ADD26R,1.9500X1.9500*%
%ADD27C,7.0000*%
%ADD28C,0.9000*%
G36*
X693883Y363098D02*
X609112D01*
X579577Y392632D01*
X580095Y393882D01*
X610189D01*
X612530Y394348D01*
X613506Y395000D01*
X693883D01*
Y363098D01*
D02*
G37*
G36*
X84935Y356395D02*
X86589Y355290D01*
X88540Y354902D01*
X94902D01*
Y212112D01*
X87888Y205098D01*
X13112D01*
X10877Y207332D01*
X9223Y208438D01*
X9223Y208438D01*
X7272Y208826D01*
X6118Y209807D01*
X6118Y354902D01*
X8540D01*
X10491Y355290D01*
X12145Y356395D01*
X12190Y356462D01*
X84890D01*
X84935Y356395D01*
D02*
G37*
G36*
X607000Y358000D02*
X693883D01*
Y315000D01*
X600000D01*
Y175000D01*
X625000Y150000D01*
X691000D01*
Y110000D01*
X595000D01*
X580000Y125000D01*
X115000D01*
X80000Y160000D01*
X6118D01*
Y203249D01*
X7272Y203728D01*
X11000Y200000D01*
X90000D01*
X100000Y210000D01*
Y360000D01*
X88540D01*
Y361560D01*
X8540D01*
Y360000D01*
X6118D01*
X6118Y390000D01*
X575000D01*
X607000Y358000D01*
D02*
G37*
G36*
X693883Y155476D02*
X692632Y154773D01*
X691000Y155098D01*
X627112D01*
X605098Y177112D01*
Y309902D01*
X693883D01*
Y155476D01*
D02*
G37*
G36*
X111395Y121395D02*
X113049Y120290D01*
X115000Y119902D01*
X577888D01*
X591395Y106395D01*
X593049Y105290D01*
X595000Y104902D01*
X681000D01*
Y104000D01*
X693883D01*
Y49784D01*
X693934Y49524D01*
X693592Y44297D01*
X692469Y38655D01*
X690620Y33207D01*
X688075Y28047D01*
X684879Y23264D01*
X681086Y18938D01*
X676760Y15145D01*
X671977Y11949D01*
X666817Y9404D01*
X661369Y7555D01*
X655727Y6432D01*
X651236Y6138D01*
X649986Y6141D01*
Y6141D01*
X649869Y6118D01*
X50038Y6118D01*
X49717Y6054D01*
X44294Y6409D01*
X38649Y7532D01*
X33198Y9383D01*
X28035Y11928D01*
X23249Y15126D01*
X18922Y18922D01*
X15126Y23249D01*
X11928Y28036D01*
X9383Y33198D01*
X7532Y38649D01*
X6409Y44294D01*
X6100Y49013D01*
X6112Y50261D01*
X6118Y50292D01*
X6118Y50296D01*
X6118Y51511D01*
X6118Y153652D01*
X6118Y154902D01*
X77888D01*
X111395Y121395D01*
D02*
G37*
%LPC*%
G36*
X575000Y315000D02*
X145000D01*
X135000Y305000D01*
Y191000D01*
X145000Y175000D01*
X575000D01*
Y315000D01*
D02*
G37*
%LPD*%
G36*
X569902Y180098D02*
X147825D01*
X140098Y192462D01*
Y302888D01*
X147112Y309902D01*
X569902D01*
Y180098D01*
D02*
G37*
%LPC*%
G36*
X649996Y90126D02*
X643719Y89632D01*
X637597Y88162D01*
X631780Y85752D01*
X626412Y82463D01*
X621624Y78374D01*
X617535Y73586D01*
X614246Y68218D01*
X611836Y62401D01*
X610366Y56279D01*
X609872Y50002D01*
X610366Y43725D01*
X611836Y37603D01*
X614246Y31786D01*
X617535Y26418D01*
X621624Y21630D01*
X626412Y17541D01*
X631780Y14252D01*
X637597Y11842D01*
X643719Y10372D01*
X649996Y9878D01*
X656273Y10372D01*
X662395Y11842D01*
X668212Y14252D01*
X673580Y17541D01*
X678368Y21630D01*
X682457Y26418D01*
X685747Y31786D01*
X688156Y37603D01*
X689626Y43725D01*
X690120Y50002D01*
X689626Y56279D01*
X688156Y62401D01*
X685747Y68218D01*
X682457Y73586D01*
X678368Y78374D01*
X673580Y82463D01*
X668212Y85752D01*
X662395Y88162D01*
X656273Y89632D01*
X649996Y90126D01*
D02*
G37*
G36*
X49996D02*
X43719Y89632D01*
X37597Y88162D01*
X31780Y85752D01*
X26412Y82463D01*
X21624Y78374D01*
X17535Y73586D01*
X14246Y68218D01*
X11836Y62401D01*
X10366Y56279D01*
X9872Y50002D01*
X10366Y43725D01*
X11836Y37603D01*
X14246Y31786D01*
X17535Y26418D01*
X21624Y21630D01*
X26412Y17541D01*
X31780Y14252D01*
X37597Y11842D01*
X43719Y10372D01*
X49996Y9878D01*
X56273Y10372D01*
X62395Y11842D01*
X68212Y14252D01*
X73580Y17541D01*
X78368Y21630D01*
X82457Y26418D01*
X85746Y31786D01*
X88156Y37603D01*
X89626Y43725D01*
X90120Y50002D01*
X89626Y56279D01*
X88156Y62401D01*
X85746Y68218D01*
X82457Y73586D01*
X78368Y78374D01*
X73580Y82463D01*
X68212Y85752D01*
X62395Y88162D01*
X56273Y89632D01*
X49996Y90126D01*
D02*
G37*
%LPD*%
D21*
X65790Y337310D02*
D03*
Y352310D02*
D03*
Y367310D02*
D03*
Y382310D02*
D03*
X634210D02*
D03*
Y367310D02*
D03*
Y352310D02*
D03*
Y337310D02*
D03*
D22*
X26790D02*
D03*
Y352310D02*
D03*
Y367310D02*
D03*
Y382310D02*
D03*
X673210D02*
D03*
Y367310D02*
D03*
Y352310D02*
D03*
Y337310D02*
D03*
D23*
X177800Y262500D02*
D03*
X525780D02*
D03*
X351790D02*
D03*
X525780Y72500D02*
D03*
X351790D02*
D03*
X177800D02*
D03*
D24*
Y337500D02*
D03*
X525780D02*
D03*
X351790D02*
D03*
X525780Y147500D02*
D03*
X351790D02*
D03*
X177800D02*
D03*
D25*
X46990Y127000D02*
D03*
X652820Y177000D02*
D03*
D26*
X46990D02*
D03*
X652820Y127000D02*
D03*
D27*
X49996Y50002D02*
D03*
X649996D02*
D03*
Y450002D02*
D03*
X50000Y450000D02*
D03*
D28*
X75000Y149000D02*
D03*
X393000Y304000D02*
D03*
X151000Y186000D02*
D03*
X611000Y242000D02*
D03*
X564000Y217000D02*
D03*
X62000Y325000D02*
D03*
X39000D02*
D03*
X16000D02*
D03*
X608000Y388000D02*
D03*
X609000Y370000D02*
D03*
X601000Y378000D02*
D03*
X85000Y325000D02*
D03*
X611000Y304000D02*
D03*
X415000Y262000D02*
D03*
X260000Y303000D02*
D03*
X306000Y245000D02*
D03*
X496000Y186000D02*
D03*
X528000Y304000D02*
D03*
X624000Y170000D02*
D03*
X564000Y275000D02*
D03*
X387000Y187000D02*
D03*
X218000Y188000D02*
D03*
X147000Y300000D02*
D03*
X87000Y270000D02*
D03*
X85000Y214000D02*
D03*
X14000Y213000D02*
D03*
X622000Y98000D02*
D03*
X462000Y113000D02*
D03*
X256000Y63000D02*
D03*
X575000Y114000D02*
D03*
X292000Y112000D02*
D03*
X441000Y58000D02*
D03*
X113000Y112000D02*
D03*
X14000Y147000D02*
D03*
X12000Y82000D02*
D03*
X82000Y13000D02*
D03*
X171000Y12000D02*
D03*
X313000Y11000D02*
D03*
X488000Y12000D02*
D03*
X624000D02*
D03*
X688000Y95000D02*
D03*
X686000Y163000D02*
D03*
X688000Y257000D02*
D03*
X684000Y302000D02*
D03*
X594000Y387000D02*
D03*
X12000Y308000D02*
D03*
M02*
