G04*
G04 #@! TF.GenerationSoftware,Altium Limited,Altium Designer,19.1.5 (86)*
G04*
G04 Layer_Color=16711935*
%FSLAX44Y44*%
%MOMM*%
G71*
G01*
G75*
%ADD15R,2.6032X2.6032*%
%ADD16C,2.6032*%
%ADD17C,2.1532*%
%ADD18R,2.1532X2.1532*%
%ADD19C,7.2032*%
%ADD20C,1.1032*%
D15*
X177800Y262500D02*
D03*
X525780D02*
D03*
X351790D02*
D03*
X525780Y72500D02*
D03*
X351790D02*
D03*
X177800D02*
D03*
D16*
Y337500D02*
D03*
X525780D02*
D03*
X351790D02*
D03*
X525780Y147500D02*
D03*
X351790D02*
D03*
X177800D02*
D03*
D17*
X46990Y127000D02*
D03*
X652820Y177000D02*
D03*
D18*
X46990D02*
D03*
X652820Y127000D02*
D03*
D19*
X49996Y50002D02*
D03*
X649996D02*
D03*
Y450002D02*
D03*
X50000Y450000D02*
D03*
D20*
X75000Y149000D02*
D03*
X393000Y304000D02*
D03*
X151000Y186000D02*
D03*
X611000Y242000D02*
D03*
X564000Y217000D02*
D03*
X62000Y325000D02*
D03*
X39000D02*
D03*
X16000D02*
D03*
X608000Y388000D02*
D03*
X609000Y370000D02*
D03*
X601000Y378000D02*
D03*
X85000Y325000D02*
D03*
X611000Y304000D02*
D03*
X415000Y262000D02*
D03*
X260000Y303000D02*
D03*
X306000Y245000D02*
D03*
X496000Y186000D02*
D03*
X528000Y304000D02*
D03*
X624000Y170000D02*
D03*
X564000Y275000D02*
D03*
X387000Y187000D02*
D03*
X218000Y188000D02*
D03*
X147000Y300000D02*
D03*
X87000Y270000D02*
D03*
X85000Y214000D02*
D03*
X14000Y213000D02*
D03*
X622000Y98000D02*
D03*
X462000Y113000D02*
D03*
X256000Y63000D02*
D03*
X575000Y114000D02*
D03*
X292000Y112000D02*
D03*
X441000Y58000D02*
D03*
X113000Y112000D02*
D03*
X14000Y147000D02*
D03*
X12000Y82000D02*
D03*
X82000Y13000D02*
D03*
X171000Y12000D02*
D03*
X313000Y11000D02*
D03*
X488000Y12000D02*
D03*
X624000D02*
D03*
X688000Y95000D02*
D03*
X686000Y163000D02*
D03*
X688000Y257000D02*
D03*
X684000Y302000D02*
D03*
X594000Y387000D02*
D03*
X12000Y308000D02*
D03*
M02*
