M48
;Layer_Color=9474304
;FILE_FORMAT=4:4
METRIC,LZ
;TYPE=PLATED
T1F00S00C0.5000
T2F00S00C1.0000
T3F00S00C1.3000
T4F00S00C3.5000
%
T01
X00624Y00012
X00622Y00098
X00575Y00114
X00624Y0017
X00686Y00163
X00688Y00095
X00564Y00217
X00496Y00186
X00462Y00113
X00441Y00058
X00488Y00012
X00313Y00011
X00256Y00063
X00292Y00112
X00218Y00188
X00151Y00186
X00113Y00112
X00171Y00012
X00387Y00187
X00085Y00214
X00014Y00213
Y00147
X00075Y00149
X00012Y00082
X00082Y00013
X00087Y0027
X00085Y00325
X00062
X00039
X00016
X00012Y00308
X00147Y003
X0026Y00303
X00306Y00245
X00415Y00262
X00393Y00304
X00528
X00564Y00275
X00611Y00304
Y00242
X00688Y00257
X00684Y00302
X00609Y0037
X00601Y00378
X00594Y00387
X00608Y00388
T02
X0052578Y000725
Y001475
X0035179
Y000725
X001778
Y001475
Y002625
Y003375
X0035179
Y002625
X0052578
Y003375
T03
X0065282Y00127
Y00177
X0004699
Y00127
T04
X00649996Y00050002
X00049996
X0005Y0045
X00649996Y00450002
M30
