G04*
G04 #@! TF.GenerationSoftware,Altium Limited,Altium Designer,19.1.5 (86)*
G04*
G04 Layer_Color=65535*
%FSLAX44Y44*%
%MOMM*%
G71*
G01*
G75*
%ADD10C,0.2000*%
%ADD11R,0.8000X0.8500*%
%ADD12C,0.2540*%
D10*
X257800Y300000D02*
G03*
X257800Y300000I-80000J0D01*
G01*
X605780D02*
G03*
X605780Y300000I-80000J0D01*
G01*
X431790D02*
G03*
X431790Y300000I-80000J0D01*
G01*
X605780Y110000D02*
G03*
X605780Y110000I-80000J0D01*
G01*
X431790D02*
G03*
X431790Y110000I-80000J0D01*
G01*
X257800D02*
G03*
X257800Y110000I-80000J0D01*
G01*
X6990Y102000D02*
Y202000D01*
X81990Y102000D02*
Y202000D01*
X6990Y102000D02*
X81990D01*
X6990Y202000D02*
X81990D01*
X692820Y102000D02*
Y202000D01*
X617820Y102000D02*
Y202000D01*
X692820D01*
X617820Y102000D02*
X692820D01*
D11*
X43790Y337310D02*
D03*
Y352310D02*
D03*
Y367310D02*
D03*
Y382310D02*
D03*
X656210D02*
D03*
Y367310D02*
D03*
Y352310D02*
D03*
Y337310D02*
D03*
D12*
X178382Y42000D02*
Y52157D01*
X352383Y42000D02*
Y52157D01*
X526382Y42000D02*
Y52157D01*
Y233000D02*
Y243157D01*
X352383Y233000D02*
Y243157D01*
X178382Y233000D02*
Y243157D01*
X520000Y172617D02*
X530157D01*
X525078Y177696D02*
Y167539D01*
X347000Y172617D02*
X357157D01*
X352078Y177696D02*
Y167539D01*
X172000Y172617D02*
X182157D01*
X177078Y177696D02*
Y167539D01*
X520000Y360617D02*
X530157D01*
X525078Y365696D02*
Y355539D01*
X347000Y360617D02*
X357157D01*
X352078Y365696D02*
Y355539D01*
X172000Y360617D02*
X182157D01*
X177078Y365696D02*
Y355539D01*
X676383Y311000D02*
Y321157D01*
X671304Y316078D02*
X681461D01*
X676383Y84000D02*
Y94157D01*
X671304Y89078D02*
X681461D01*
X25382Y209000D02*
Y219157D01*
X20304Y214078D02*
X30461D01*
X25382Y400000D02*
Y410157D01*
X20304Y405078D02*
X30461D01*
X676383Y209000D02*
Y219157D01*
Y402000D02*
Y412157D01*
X25382Y306000D02*
Y316157D01*
Y86000D02*
Y96157D01*
X234947Y381876D02*
X232407Y384415D01*
X227329D01*
X224790Y381876D01*
Y371719D01*
X227329Y369180D01*
X232407D01*
X234947Y371719D01*
X240025Y369180D02*
X245103D01*
X242564D01*
Y384415D01*
X240025Y381876D01*
X343000Y24235D02*
Y9000D01*
Y14078D01*
X353157Y24235D01*
X345539Y16617D01*
X353157Y9000D01*
X360774Y19157D02*
X365853D01*
X368392Y16617D01*
Y9000D01*
X360774D01*
X358235Y11539D01*
X360774Y14078D01*
X368392D01*
X373470Y3922D02*
Y19157D01*
X381088D01*
X383627Y16617D01*
Y11539D01*
X381088Y9000D01*
X373470D01*
X391244Y19157D02*
X396323D01*
X398862Y16617D01*
Y9000D01*
X391244D01*
X388705Y11539D01*
X391244Y14078D01*
X398862D01*
X403940Y9000D02*
X411558D01*
X414097Y11539D01*
X411558Y14078D01*
X406479D01*
X403940Y16617D01*
X406479Y19157D01*
X414097D01*
X419175Y9000D02*
X424254D01*
X421715D01*
Y19157D01*
X419175D01*
X434410Y21696D02*
Y19157D01*
X431871D01*
X436950D01*
X434410D01*
Y11539D01*
X436950Y9000D01*
X447106D02*
X452185D01*
X454724Y11539D01*
Y16617D01*
X452185Y19157D01*
X447106D01*
X444567Y16617D01*
Y11539D01*
X447106Y9000D01*
X459802Y19157D02*
Y9000D01*
Y14078D01*
X462341Y16617D01*
X464881Y19157D01*
X467420D01*
X490272Y24235D02*
Y9000D01*
Y14078D01*
X500429Y24235D01*
X492812Y16617D01*
X500429Y9000D01*
X508047Y19157D02*
X513125D01*
X515664Y16617D01*
Y9000D01*
X508047D01*
X505507Y11539D01*
X508047Y14078D01*
X515664D01*
X520742Y19157D02*
Y9000D01*
Y14078D01*
X523282Y16617D01*
X525821Y19157D01*
X528360D01*
X538517Y21696D02*
Y19157D01*
X535978D01*
X541056D01*
X538517D01*
Y11539D01*
X541056Y9000D01*
X563909Y19157D02*
X568987Y9000D01*
X574065Y19157D01*
X579144Y9000D02*
X584222D01*
X581683D01*
Y24235D01*
X579144Y21696D01*
X591839Y9000D02*
Y11539D01*
X594379D01*
Y9000D01*
X591839D01*
X604535Y21696D02*
X607075Y24235D01*
X612153D01*
X614692Y21696D01*
Y11539D01*
X612153Y9000D01*
X607075D01*
X604535Y11539D01*
Y21696D01*
X243837Y189336D02*
X241297Y191875D01*
X236219D01*
X233680Y189336D01*
Y179179D01*
X236219Y176640D01*
X241297D01*
X243837Y179179D01*
X259072Y191875D02*
X253993Y189336D01*
X248915Y184258D01*
Y179179D01*
X251454Y176640D01*
X256533D01*
X259072Y179179D01*
Y181718D01*
X256533Y184258D01*
X248915D01*
X576157Y385696D02*
X573618Y388235D01*
X568539D01*
X566000Y385696D01*
Y375539D01*
X568539Y373000D01*
X573618D01*
X576157Y375539D01*
X591392Y388235D02*
X581235D01*
Y380617D01*
X586313Y383157D01*
X588853D01*
X591392Y380617D01*
Y375539D01*
X588853Y373000D01*
X583774D01*
X581235Y375539D01*
X410207Y190676D02*
X407668Y193215D01*
X402589D01*
X400050Y190676D01*
Y180519D01*
X402589Y177980D01*
X407668D01*
X410207Y180519D01*
X425442Y177980D02*
X415285D01*
X425442Y188137D01*
Y190676D01*
X422903Y193215D01*
X417824D01*
X415285Y190676D01*
X588007Y187466D02*
X585467Y190005D01*
X580389D01*
X577850Y187466D01*
Y177309D01*
X580389Y174770D01*
X585467D01*
X588007Y177309D01*
X593085Y187466D02*
X595624Y190005D01*
X600703D01*
X603242Y187466D01*
Y184927D01*
X600703Y182388D01*
X598163D01*
X600703D01*
X603242Y179848D01*
Y177309D01*
X600703Y174770D01*
X595624D01*
X593085Y177309D01*
X416557Y375526D02*
X414017Y378065D01*
X408939D01*
X406400Y375526D01*
Y365369D01*
X408939Y362830D01*
X414017D01*
X416557Y365369D01*
X429253Y362830D02*
Y378065D01*
X421635Y370448D01*
X431792D01*
X615765Y218157D02*
Y213078D01*
Y215618D01*
X628461D01*
X631000Y213078D01*
Y210539D01*
X628461Y208000D01*
X631000Y230853D02*
X615765D01*
X623382Y223235D01*
Y233392D01*
X96157Y192235D02*
X91078D01*
X93617D01*
Y179539D01*
X91078Y177000D01*
X88539D01*
X86000Y179539D01*
X101235Y189696D02*
X103774Y192235D01*
X108853D01*
X111392Y189696D01*
Y187157D01*
X108853Y184618D01*
X106313D01*
X108853D01*
X111392Y182078D01*
Y179539D01*
X108853Y177000D01*
X103774D01*
X101235Y179539D01*
X100157Y366235D02*
X95078D01*
X97618D01*
Y353539D01*
X95078Y351000D01*
X92539D01*
X90000Y353539D01*
X115392Y351000D02*
X105235D01*
X115392Y361157D01*
Y363696D01*
X112853Y366235D01*
X107774D01*
X105235Y363696D01*
X604157Y361235D02*
X599078D01*
X601618D01*
Y348539D01*
X599078Y346000D01*
X596539D01*
X594000Y348539D01*
X609235Y346000D02*
X614313D01*
X611774D01*
Y361235D01*
X609235Y358696D01*
M02*
